<?xml version="1.0" ?><svg viewBox="0 0 50 50" xmlns="http://www.w3.org/2000/svg"><title/><g data-name="레이어 2" id="레이어_2"><g data-name="레이어 1" id="레이어_1-2"><path d="M43.26,0H6.74A6.74,6.74,0,0,0,0,6.74V43.26A6.74,6.74,0,0,0,6.74,50h18l0-17.87H20.14A1.1,1.1,0,0,1,19,31l0-5.76a1.1,1.1,0,0,1,1.1-1.1h4.63V18.62c0-6.46,3.94-10,9.71-10h4.73a1.1,1.1,0,0,1,1.1,1.1v4.86a1.1,1.1,0,0,1-1.09,1.1h-2.9c-3.13,0-3.74,1.49-3.74,3.67v4.82h6.88a1.1,1.1,0,0,1,1.09,1.22l-.68,5.76a1.1,1.1,0,0,1-1.09,1H32.57l0,17.87H43.26A6.74,6.74,0,0,0,50,43.26V6.74A6.74,6.74,0,0,0,43.26,0Z"/></g></g></svg>